<?xml version="1.0" encoding="iso-8859-1"?>
                    <svg version="1.1" id="Capa_1" xmlns="http://www.w3.org/2000/svg" xmlns:xlink="http://www.w3.org/1999/xlink" height="47" viewBox="-4 0 374.11666258578134 115.70727757725993" class="css-1j8o68f">
                      <defs id="SvgjsDefs1589"></defs>
                      <g id="SvgjsG1590" featurekey="HKaMnE-0"
                        transform="matrix(29.34412120274169,0,0,29.34412120274169,-32.90395980447158,-3.608216642467017)"
                        fill="#fff">
                        <g xmlns="http://www.w3.org/2000/svg">
                          <g>
                            <polygon fill="#fff"
                              points="2.179,1.009 0.989,2.171 1.872,3.302 2.465,3.292 3.062,2.759 2.767,2.428 2.292,2.852     2.085,2.856 1.583,2.211 2.358,1.453 3.225,1.453 4.014,2.49 4.014,1.759 3.443,1.009   ">
                            </polygon>
                          </g>
                          <g>
                            <polygon fill="#fff"
                              points="2.544,1.708 1.947,2.242 2.242,2.571 2.717,2.148 2.923,2.145 3.426,2.79 2.649,3.547     1.784,3.547 0.985,2.499 0.985,3.23 1.565,3.991 2.83,3.991 4.014,2.833 4.014,2.824 3.137,1.697   ">
                            </polygon>
                          </g>
                        </g>
                      </g>
                      <g id="SvgjsG1591" featurekey="J3GnXt-0"
                        transform="matrix(6.052773905426549,0,0,6.052773905426549,100.76822812358114,-5.348197645083538)"
                        fill="#fff">
                        <path
                          d="M6.12 10.28 c1.3733 0 2.36 0.58666 2.96 1.76 c0.30666 -0.56 0.72666 -0.99334 1.26 -1.3 s1.1133 -0.46 1.74 -0.46 c2.3866 0 3.5866 1.3733 3.6 4.12 l0 5.6 l-1.8 0 l0 -5.38 c0 -0.93334 -0.16666 -1.61 -0.5 -2.03 s-0.84668 -0.63 -1.54 -0.63 c-0.81334 0 -1.42 0.24666 -1.82 0.74 s-0.6 1.1733 -0.6 2.04 l0 5.26 l-1.8 0 l0 -5.1 c0 -1.12 -0.16 -1.89 -0.48 -2.31 s-0.82666 -0.63 -1.52 -0.63 c-0.74666 0 -1.3433 0.28666 -1.79 0.86 s-0.67 1.3 -0.67 2.18 l0 5 l-1.8 0 l0 -9.48 l1.68 0 l0 1.48 l0.04 0 c0.2 -0.46666 0.59666 -0.87 1.19 -1.21 s1.21 -0.51 1.85 -0.51 z M19.299999999999997 5.84 l3.86 6.22 l3.98 -6.22 l2.34 0 l-5.36 8.12 l0 6.04 l-1.92 0 l0 -6.04 l-5.36 -8.12 l2.46 0 z M40 5.84 l0 1.8 l-6.98 0 l0 4.44 l6.5 0 l0 1.8 l-6.5 0 l0 6.12 l-1.92 0 l0 -14.16 l8.9 0 z M44.50000000000001 5.84 l0 14.16 l-1.92 0 l0 -14.16 l1.92 0 z">
                        </path>
                      </g>
                    </svg>