<?xml version="1.0" encoding="iso-8859-1"?>
                    <svg version="1.1" id="Capa_1" xmlns="http://www.w3.org/2000/svg" xmlns:xlink="http://www.w3.org/1999/xlink" height="47" viewBox="-4 0 374.11666258578134 115.70727757725993" class="css-1j8o68f">
                      <defs id="SvgjsDefs1589"></defs>
                      <g id="SvgjsG1590" featurekey="HKaMnE-0"
                        transform="matrix(29.34412120274169,0,0,29.34412120274169,-32.90395980447158,-3.608216642467017)"
                        fill="#fff">
                        <g xmlns="http://www.w3.org/2000/svg">
                          <g>
                            <polygon fill="#fff"
                              points="2.179,1.009 0.989,2.171 1.872,3.302 2.465,3.292 3.062,2.759 2.767,2.428 2.292,2.852     2.085,2.856 1.583,2.211 2.358,1.453 3.225,1.453 4.014,2.49 4.014,1.759 3.443,1.009   ">
                            </polygon>
                          </g>
                          <g>
                            <polygon fill="#fff"
                              points="2.544,1.708 1.947,2.242 2.242,2.571 2.717,2.148 2.923,2.145 3.426,2.79 2.649,3.547     1.784,3.547 0.985,2.499 0.985,3.23 1.565,3.991 2.83,3.991 4.014,2.833 4.014,2.824 3.137,1.697   ">
                            </polygon>
                          </g>
                        </g>
                      </g>
                    </svg>