<svg height='100px' width='100px'  fill="#000000" xmlns="http://www.w3.org/2000/svg" xmlns:xlink="http://www.w3.org/1999/xlink" version="1.1" x="0px" y="0px" viewBox="0 0 100 100" enable-background="new 0 0 100 100" xml:space="preserve"><g display="none"><rect x="-507.879" y="-165.155" display="inline" fill="#000000" width="1286.936" height="695.155"></rect></g><g><g><rect x="48.544" y="5" width="2.911" height="10.647"></rect><polygon points="42.584,16.833 38.51,6.996 37.165,7.553 35.82,8.11 39.895,17.947   "></polygon><polygon points="33.813,22.352 34.842,21.323 27.313,13.794 26.284,14.824 25.255,15.853 32.784,23.381   "></polygon><polygon points="18.457,27.049 28.293,31.124 28.851,29.779 29.408,28.434 19.571,24.359   "></polygon><rect x="74.612" y="22.418" transform="matrix(0.3828 0.9238 -0.9238 0.3828 72.581 -53.1516)" width="2.911" height="10.647"></rect><polygon points="72.686,13.794 65.157,21.323 67.216,23.381 74.745,15.853 73.715,14.824   "></polygon><polygon points="62.835,7.553 61.49,6.996 57.416,16.833 60.105,17.947 64.179,8.11   "></polygon><path d="M88.185,44.023H64.61v-6.856c0-8.056-6.554-14.61-14.61-14.61s-14.61,6.554-14.61,14.61v6.856h-1.645h-21.93V95h21.93    h54.439V44.023z M39.39,37.167c0-5.85,4.76-10.61,10.61-10.61s10.61,4.76,10.61,10.61v6.856h-8.965v-8.212    c0-0.908-0.736-1.645-1.645-1.645s-1.645,0.736-1.645,1.645v8.212H39.39V37.167z M84.185,91H37.745V48.023h46.439V91z"></path><path d="M81.195,85.201V72.895H70.737H44.185v12.306h26.553H81.195z M46.685,75.395h24.553v7.306H46.685V75.395z"></path><polygon points="48.533,69.927 51.635,66.826 54.736,69.927 57.837,66.826 54.736,63.724 57.837,60.623 54.736,57.521     51.635,60.623 48.533,57.521 45.432,60.623 48.533,63.724 45.432,66.826   "></polygon><polygon points="70.644,69.927 73.745,66.826 76.846,69.927 79.948,66.826 76.846,63.724 79.948,60.623 76.846,57.521     73.745,60.623 70.644,57.521 67.542,60.623 70.643,63.724 67.542,66.826   "></polygon></g></g></svg>