<svg height="512" viewBox="0 0 64 64" width="512" xmlns="http://www.w3.org/2000/svg"><g id="security-ethereum-lock-protection-money"><circle cx="51" cy="49" fill="#bddbff" r="2"/><path d="m53 11v17.82c0 .82-.04 1.63-.12 2.44a6.883 6.883 0 0 0 -1.88-.26 7 7 0 0 0 -7 7v5a3 3 0 0 0 -3 3v4.08l-13 10.92-16.44-13.81a23.978 23.978 0 0 1 -8.56-18.37v-17.82l25-8zm-12 24-13-26-13 26 13 8zm-13 20 13-16-13 8-13-8z" fill="#bddbff"/><path d="m51 35a2.853 2.853 0 0 1 1.13.23 23.953 23.953 0 0 1 -3.77 7.77h-.36v-5a3 3 0 0 1 3-3z" fill="#bddbff"/><g fill="#57a4ff"><path d="m28.89 8.55a1.039 1.039 0 0 0 -1.78 0l-13 26a.982.982 0 0 0 .37 1.3l13 8a.976.976 0 0 0 1.04 0l13-8a.982.982 0 0 0 .37-1.3zm-1.89 32.66-10.09-6.21 10.09-6.21zm0-14.77-9.54 5.87 9.54-19.07zm2-13.2 9.54 19.07-9.54-5.87zm0 27.97v-12.42l10.09 6.21z"/><path d="m59 42v-4a7.949 7.949 0 0 0 -2.34-5.66 7.862 7.862 0 0 0 -2.73-1.78c.04-.57.07-1.14.07-1.74v-17.82a1 1 0 0 0 -.7-.95l-25-8a.883.883 0 0 0 -.6 0l-25 8a1 1 0 0 0 -.7.95v17.82a24.937 24.937 0 0 0 8.92 19.14l16.44 13.81a1.005 1.005 0 0 0 1.28 0l11.36-9.54v5.77a4 4 0 0 0 4 4h14a4 4 0 0 0 4-4v-13a3.009 3.009 0 0 0 -3-3zm-3.76-8.24a5.928 5.928 0 0 1 1.76 4.24v4h-2v-4a4 4 0 0 0 -8 0v4h-2v-4a6 6 0 0 1 6-6 5.928 5.928 0 0 1 4.24 1.76zm-2.59 3.11a1.99 1.99 0 0 1 .35 1.13v4h-2.77a25.329 25.329 0 0 0 2.42-5.13zm-3.65 3.27v-2.14a1.991 1.991 0 0 1 1.82-1.98 22.334 22.334 0 0 1 -1.82 4.12zm-9 5.86v3.61l-12 10.08-15.8-13.27a22.922 22.922 0 0 1 -8.2-17.6v-17.09l24-7.68 24 7.68v17.09c0 .42-.01.84-.03 1.24-.32-.03-.64-.06-.97-.06a8.011 8.011 0 0 0 -8 8v4.14a4 4 0 0 0 -3 3.86zm20 12a2.006 2.006 0 0 1 -2 2h-14a2.006 2.006 0 0 1 -2-2v-12a2.006 2.006 0 0 1 2-2h15a1 1 0 0 1 1 1z"/><path d="m51 46a2.993 2.993 0 0 0 -1 5.816v6.184h2v-6.184a2.993 2.993 0 0 0 -1-5.816zm0 4a1 1 0 1 1 1-1 1 1 0 0 1 -1 1z"/><path d="m41.75 38.34a.983.983 0 0 0 -1.27-.19l-12.48 7.68-12.48-7.68a.983.983 0 0 0 -1.27.19 1.011 1.011 0 0 0 -.03 1.29l13 16a1.007 1.007 0 0 0 1.56 0l13-16a1.011 1.011 0 0 0 -.03-1.29zm-14.75 13.84-7.52-9.25 7.52 4.63zm2 0v-4.62l7.52-4.63z"/></g></g></svg>